<mxfile host="Electron" modified="2023-08-06T13:41:23.707Z" agent="Mozilla/5.0 (X11; Linux x86_64) AppleWebKit/537.36 (KHTML, like Gecko) draw.io/21.6.5 Chrome/114.0.5735.243 Electron/25.3.1 Safari/537.36" etag="oMfO9rVlUYSV3nCC2aFd" version="21.6.5" type="device">
  <diagram name="Page-1" id="XOlloQTtOGYPSXYlKcx5">
    <mxGraphModel dx="818" dy="531" grid="1" gridSize="10" guides="1" tooltips="1" connect="1" arrows="1" fold="1" page="1" pageScale="1" pageWidth="827" pageHeight="1169" math="0" shadow="0">
      <root>
        <mxCell id="0" />
        <mxCell id="1" parent="0" />
        <mxCell id="ncuBDzDbc9-6LbxpOUKF-1" value="" style="sketch=0;pointerEvents=1;shadow=0;dashed=0;html=1;strokeColor=none;fillColor=#505050;labelPosition=center;verticalLabelPosition=bottom;verticalAlign=top;outlineConnect=0;align=center;shape=mxgraph.office.services.excel_services;" vertex="1" parent="1">
          <mxGeometry x="40" y="110" width="50" height="40" as="geometry" />
        </mxCell>
        <mxCell id="ncuBDzDbc9-6LbxpOUKF-2" value="" style="strokeWidth=2;html=1;shape=mxgraph.flowchart.database;whiteSpace=wrap;" vertex="1" parent="1">
          <mxGeometry x="40" y="190" width="50" height="50" as="geometry" />
        </mxCell>
        <mxCell id="ncuBDzDbc9-6LbxpOUKF-3" value="" style="image;html=1;image=img/lib/clip_art/general/Full_Folder_128x128.png" vertex="1" parent="1">
          <mxGeometry x="40" y="270" width="50" height="50" as="geometry" />
        </mxCell>
        <mxCell id="ncuBDzDbc9-6LbxpOUKF-4" value="" style="rounded=0;whiteSpace=wrap;html=1;fillColor=none;" vertex="1" parent="1">
          <mxGeometry x="190" y="75" width="130" height="280" as="geometry" />
        </mxCell>
        <mxCell id="ncuBDzDbc9-6LbxpOUKF-5" value="" style="rounded=0;whiteSpace=wrap;html=1;fillColor=none;" vertex="1" parent="1">
          <mxGeometry x="410" y="75" width="160" height="280" as="geometry" />
        </mxCell>
        <mxCell id="ncuBDzDbc9-6LbxpOUKF-7" value="" style="shape=internalStorage;whiteSpace=wrap;html=1;backgroundOutline=1;" vertex="1" parent="1">
          <mxGeometry x="200" y="85" width="110" height="75" as="geometry" />
        </mxCell>
        <mxCell id="ncuBDzDbc9-6LbxpOUKF-9" value="" style="shape=internalStorage;whiteSpace=wrap;html=1;backgroundOutline=1;" vertex="1" parent="1">
          <mxGeometry x="200" y="215" width="110" height="125" as="geometry" />
        </mxCell>
        <mxCell id="ncuBDzDbc9-6LbxpOUKF-10" value="Staging Layer" style="text;html=1;strokeColor=none;fillColor=none;align=center;verticalAlign=middle;whiteSpace=wrap;rounded=0;" vertex="1" parent="1">
          <mxGeometry x="210" y="165" width="90" height="30" as="geometry" />
        </mxCell>
        <mxCell id="ncuBDzDbc9-6LbxpOUKF-12" value="" style="shape=internalStorage;whiteSpace=wrap;html=1;backgroundOutline=1;" vertex="1" parent="1">
          <mxGeometry x="465" y="90" width="80" height="50" as="geometry" />
        </mxCell>
        <mxCell id="ncuBDzDbc9-6LbxpOUKF-14" value="" style="shape=internalStorage;whiteSpace=wrap;html=1;backgroundOutline=1;" vertex="1" parent="1">
          <mxGeometry x="420" y="115" width="60" height="50" as="geometry" />
        </mxCell>
        <mxCell id="ncuBDzDbc9-6LbxpOUKF-15" value="Core Layer" style="text;html=1;strokeColor=none;fillColor=none;align=center;verticalAlign=middle;whiteSpace=wrap;rounded=0;" vertex="1" parent="1">
          <mxGeometry x="460" y="160" width="90" height="30" as="geometry" />
        </mxCell>
        <mxCell id="ncuBDzDbc9-6LbxpOUKF-16" value="" style="rounded=0;whiteSpace=wrap;html=1;fillColor=none;" vertex="1" parent="1">
          <mxGeometry x="620" y="75" width="130" height="280" as="geometry" />
        </mxCell>
        <mxCell id="ncuBDzDbc9-6LbxpOUKF-17" value="" style="shape=internalStorage;whiteSpace=wrap;html=1;backgroundOutline=1;" vertex="1" parent="1">
          <mxGeometry x="650" y="90" width="80" height="50" as="geometry" />
        </mxCell>
        <mxCell id="ncuBDzDbc9-6LbxpOUKF-13" value="" style="shape=internalStorage;whiteSpace=wrap;html=1;backgroundOutline=1;" vertex="1" parent="1">
          <mxGeometry x="420" y="200" width="140" height="90" as="geometry" />
        </mxCell>
        <mxCell id="ncuBDzDbc9-6LbxpOUKF-18" value="" style="shape=internalStorage;whiteSpace=wrap;html=1;backgroundOutline=1;" vertex="1" parent="1">
          <mxGeometry x="660" y="190" width="80" height="80" as="geometry" />
        </mxCell>
        <mxCell id="ncuBDzDbc9-6LbxpOUKF-19" value="" style="shape=internalStorage;whiteSpace=wrap;html=1;backgroundOutline=1;" vertex="1" parent="1">
          <mxGeometry x="630" y="290" width="60" height="50" as="geometry" />
        </mxCell>
        <mxCell id="ncuBDzDbc9-6LbxpOUKF-20" value="Data Mart" style="text;html=1;strokeColor=none;fillColor=none;align=center;verticalAlign=middle;whiteSpace=wrap;rounded=0;" vertex="1" parent="1">
          <mxGeometry x="630" y="150" width="60" height="30" as="geometry" />
        </mxCell>
        <mxCell id="ncuBDzDbc9-6LbxpOUKF-21" value="" style="endArrow=classic;html=1;rounded=0;entryX=0.75;entryY=1;entryDx=0;entryDy=0;exitX=0.5;exitY=0;exitDx=0;exitDy=0;" edge="1" parent="1" source="ncuBDzDbc9-6LbxpOUKF-18" target="ncuBDzDbc9-6LbxpOUKF-17">
          <mxGeometry width="50" height="50" relative="1" as="geometry">
            <mxPoint x="640" y="430" as="sourcePoint" />
            <mxPoint x="640" y="180" as="targetPoint" />
          </mxGeometry>
        </mxCell>
        <mxCell id="ncuBDzDbc9-6LbxpOUKF-22" value="" style="endArrow=classic;html=1;rounded=0;entryX=0.5;entryY=0;entryDx=0;entryDy=0;exitX=0.5;exitY=1;exitDx=0;exitDy=0;" edge="1" parent="1" source="ncuBDzDbc9-6LbxpOUKF-18" target="ncuBDzDbc9-6LbxpOUKF-19">
          <mxGeometry width="50" height="50" relative="1" as="geometry">
            <mxPoint x="560" y="380" as="sourcePoint" />
            <mxPoint x="650" y="410" as="targetPoint" />
          </mxGeometry>
        </mxCell>
        <mxCell id="ncuBDzDbc9-6LbxpOUKF-25" value="" style="endArrow=classic;html=1;rounded=0;entryX=0;entryY=0.5;entryDx=0;entryDy=0;exitX=1;exitY=0.5;exitDx=0;exitDy=0;exitPerimeter=0;" edge="1" parent="1" source="ncuBDzDbc9-6LbxpOUKF-2" target="ncuBDzDbc9-6LbxpOUKF-4">
          <mxGeometry width="50" height="50" relative="1" as="geometry">
            <mxPoint x="90" y="440" as="sourcePoint" />
            <mxPoint x="140" y="390" as="targetPoint" />
          </mxGeometry>
        </mxCell>
        <mxCell id="ncuBDzDbc9-6LbxpOUKF-26" value="" style="endArrow=classic;html=1;rounded=0;entryX=0;entryY=0.75;entryDx=0;entryDy=0;exitX=1;exitY=0.5;exitDx=0;exitDy=0;" edge="1" parent="1" source="ncuBDzDbc9-6LbxpOUKF-3" target="ncuBDzDbc9-6LbxpOUKF-4">
          <mxGeometry width="50" height="50" relative="1" as="geometry">
            <mxPoint x="100" y="225" as="sourcePoint" />
            <mxPoint x="200" y="225" as="targetPoint" />
          </mxGeometry>
        </mxCell>
        <mxCell id="ncuBDzDbc9-6LbxpOUKF-27" value="" style="endArrow=classic;html=1;rounded=0;entryX=0;entryY=0.25;entryDx=0;entryDy=0;" edge="1" parent="1" source="ncuBDzDbc9-6LbxpOUKF-1" target="ncuBDzDbc9-6LbxpOUKF-4">
          <mxGeometry width="50" height="50" relative="1" as="geometry">
            <mxPoint x="100" y="305" as="sourcePoint" />
            <mxPoint x="200" y="295" as="targetPoint" />
          </mxGeometry>
        </mxCell>
        <mxCell id="ncuBDzDbc9-6LbxpOUKF-28" value="" style="endArrow=classic;html=1;rounded=0;entryX=0;entryY=0.5;entryDx=0;entryDy=0;exitX=1;exitY=0.5;exitDx=0;exitDy=0;" edge="1" parent="1" source="ncuBDzDbc9-6LbxpOUKF-4" target="ncuBDzDbc9-6LbxpOUKF-5">
          <mxGeometry width="50" height="50" relative="1" as="geometry">
            <mxPoint x="100" y="305" as="sourcePoint" />
            <mxPoint x="200" y="295" as="targetPoint" />
          </mxGeometry>
        </mxCell>
        <mxCell id="ncuBDzDbc9-6LbxpOUKF-29" value="" style="endArrow=classic;html=1;rounded=0;entryX=0;entryY=0.5;entryDx=0;entryDy=0;exitX=1;exitY=0.5;exitDx=0;exitDy=0;" edge="1" parent="1" source="ncuBDzDbc9-6LbxpOUKF-5" target="ncuBDzDbc9-6LbxpOUKF-16">
          <mxGeometry width="50" height="50" relative="1" as="geometry">
            <mxPoint x="330" y="225" as="sourcePoint" />
            <mxPoint x="410" y="225" as="targetPoint" />
          </mxGeometry>
        </mxCell>
        <mxCell id="ncuBDzDbc9-6LbxpOUKF-33" value="" style="shape=internalStorage;whiteSpace=wrap;html=1;backgroundOutline=1;" vertex="1" parent="1">
          <mxGeometry x="430" y="260" width="70" height="85" as="geometry" />
        </mxCell>
        <mxCell id="ncuBDzDbc9-6LbxpOUKF-30" value="Extract" style="text;html=1;strokeColor=none;fillColor=none;align=center;verticalAlign=middle;whiteSpace=wrap;rounded=0;" vertex="1" parent="1">
          <mxGeometry x="110" y="180" width="60" height="25" as="geometry" />
        </mxCell>
        <mxCell id="ncuBDzDbc9-6LbxpOUKF-31" value="Transform&lt;br&gt;+&lt;br&gt;Load" style="text;html=1;strokeColor=none;fillColor=none;align=center;verticalAlign=middle;whiteSpace=wrap;rounded=0;" vertex="1" parent="1">
          <mxGeometry x="330" y="160" width="70" height="45" as="geometry" />
        </mxCell>
      </root>
    </mxGraphModel>
  </diagram>
</mxfile>
